<svg width="447" height="196" viewBox="0 0 447 196" fill="none" xmlns="http://www.w3.org/2000/svg">
<path d="M53.2152 0.954001C48.2862 1.696 43.6311 2.89734 39.2497 4.5315C31.1672 7.54367 24.2507 11.8808 18.5002 17.5253C12.7497 23.1787 8.31538 29.998 5.19721 37.9834C2.08787 45.9775 0.533203 54.9345 0.533203 64.8721V143.18H32.6777V63.6884C32.6777 53.954 35.6899 46.2602 41.7319 40.6069C47.7651 34.9624 55.9447 32.1269 66.2709 32.1269V0C61.7218 0 57.3581 0.318 53.2064 0.954001H53.2152Z" fill="white"/>
<path d="M209.442 0.000305176L195.785 32.136L150.691 138.216C146.407 148.542 141.637 157.304 136.372 164.512C131.108 171.729 125.225 177.665 118.697 182.338C112.169 187.02 104.864 190.412 96.7814 192.567C88.69 194.714 79.68 195.774 69.7513 195.774V163.638C76.3764 163.638 82.2152 162.993 87.2855 161.739C92.3559 160.476 96.8255 158.417 100.73 155.6C104.625 152.773 108.176 149.116 111.401 144.637C113.538 141.652 115.57 138.198 117.496 134.258C110.12 135.407 99.8554 111.044 99.8554 111.044L66.2887 31.8003L53.2153 0.954306C57.367 0.318305 61.7395 0.000305176 66.2798 0.000305176H87.577L131.117 102.573L174.665 0.000305176H209.442Z" fill="white"/>
<path d="M237.788 108.12L305.292 26.2972V0.000305176H195.706V32.136H258.829L191.325 113.959V140.256H306.759V108.12H237.788Z" fill="white"/>
<path d="M441.176 42.0823C437.713 33.4787 432.899 26.0498 426.733 19.7782C420.559 13.5065 413.227 8.65698 404.712 5.18548C396.205 1.72281 386.904 0.000305176 376.789 0.000305176C366.675 0.000305176 357.391 1.72281 348.885 5.18548C340.378 8.65698 333.038 13.5065 326.863 19.7782C320.689 26.0498 315.875 33.4698 312.421 42.0823C308.958 50.6772 307.227 60.0405 307.227 70.137C307.227 80.2335 308.958 89.8707 312.421 98.4656C315.883 107.069 320.698 114.463 326.863 120.628C333.038 126.803 340.369 131.617 348.885 135.071C357.391 138.534 366.693 140.256 376.789 140.256C384.828 140.256 392.363 139.187 399.376 137.032C406.399 134.885 412.75 131.794 418.456 127.783C424.163 123.755 429.074 118.906 433.181 113.191C437.298 107.484 440.469 101.08 442.713 93.9782H409.058C405.692 99.0309 401.249 102.856 395.728 105.479C390.207 108.103 383.891 109.41 376.789 109.41C366.322 109.41 357.762 106.654 351.12 101.133C344.477 95.6124 340.316 88.0775 338.638 78.5464H445.513C445.884 76.6737 446.113 75.1367 446.211 73.9177C446.308 72.6987 446.361 71.4444 446.361 70.137C446.361 60.0405 444.629 50.6772 441.167 42.0823H441.176ZM340.043 56.1097C342.481 48.2568 346.88 42.0823 353.231 37.5862C359.591 33.0988 367.444 30.864 376.789 30.864C386.135 30.864 393.723 33.1077 400.074 37.5862C406.434 42.0823 410.921 48.248 413.545 56.1097H340.034H340.043Z" fill="white"/>
</svg>
